<mxfile host="app.diagrams.net" modified="2023-11-15T12:35:44.401Z" agent="Mozilla/5.0 (Windows NT 10.0; Win64; x64) AppleWebKit/537.36 (KHTML, like Gecko) Chrome/119.0.0.0 Safari/537.36" etag="6CXy8Yi6bgoR7hj_Vjpm" version="22.1.1" type="github">
  <diagram name="Страница — 1" id="iw_jqMRQtaOPwLfUasVk">
    <mxGraphModel dx="1062" dy="1754" grid="1" gridSize="10" guides="1" tooltips="1" connect="1" arrows="1" fold="1" page="1" pageScale="1" pageWidth="827" pageHeight="1169" math="0" shadow="0">
      <root>
        <mxCell id="0" />
        <mxCell id="1" parent="0" />
        <mxCell id="RU4GJBCQBOO1Sh4OZ8oV-1" value="Серверное оборудование" style="rounded=0;whiteSpace=wrap;html=1;" vertex="1" parent="1">
          <mxGeometry x="160" y="-200" width="120" height="40" as="geometry" />
        </mxCell>
        <mxCell id="RU4GJBCQBOO1Sh4OZ8oV-2" value="СХД" style="rounded=0;whiteSpace=wrap;html=1;" vertex="1" parent="1">
          <mxGeometry x="280" y="-200" width="120" height="40" as="geometry" />
        </mxCell>
        <mxCell id="RU4GJBCQBOO1Sh4OZ8oV-3" value="Библиотеки" style="rounded=0;whiteSpace=wrap;html=1;" vertex="1" parent="1">
          <mxGeometry x="400" y="-200" width="120" height="40" as="geometry" />
        </mxCell>
        <mxCell id="RU4GJBCQBOO1Sh4OZ8oV-4" value="Сетевое оборудование ЦОД" style="rounded=0;whiteSpace=wrap;html=1;" vertex="1" parent="1">
          <mxGeometry x="160" y="-160" width="360" height="40" as="geometry" />
        </mxCell>
        <mxCell id="RU4GJBCQBOO1Sh4OZ8oV-5" value="Оборудование ИБ" style="rounded=0;whiteSpace=wrap;html=1;" vertex="1" parent="1">
          <mxGeometry x="160" y="-120" width="360" height="40" as="geometry" />
        </mxCell>
        <mxCell id="RU4GJBCQBOO1Sh4OZ8oV-6" value="Каналообразующее оборудование" style="rounded=0;whiteSpace=wrap;html=1;" vertex="1" parent="1">
          <mxGeometry x="160" y="-80" width="360" height="40" as="geometry" />
        </mxCell>
        <mxCell id="RU4GJBCQBOO1Sh4OZ8oV-7" value="Мониторинг" style="rounded=1;whiteSpace=wrap;html=1;rotation=90;" vertex="1" parent="1">
          <mxGeometry x="502.5" y="-142.5" width="160" height="45" as="geometry" />
        </mxCell>
      </root>
    </mxGraphModel>
  </diagram>
</mxfile>
